<?xml version="1.0" encoding="UTF-8"?>
<svg height="128px" viewBox="0 0 128 128" width="128px" xmlns="http://www.w3.org/2000/svg" xmlns:xlink="http://www.w3.org/1999/xlink">
    <linearGradient id="a" gradientTransform="matrix(0.232143 0 0 0.328947 -8.566589 263.826944)" gradientUnits="userSpaceOnUse" x1="88.595886" x2="536.595886" y1="-449.394012" y2="-449.394012">
        <stop offset="0" stop-color="#bc881b"/>
        <stop offset="0.0384615" stop-color="#e9b85a"/>
        <stop offset="0.0768555" stop-color="#d9991e"/>
        <stop offset="0.923077" stop-color="#d9991e"/>
        <stop offset="0.961538" stop-color="#e9b85a"/>
        <stop offset="1" stop-color="#bc881b"/>
    </linearGradient>
    <path d="m 20 16 h 88 c 4.417969 0 8 3.582031 8 8 v 84 c 0 4.417969 -3.582031 8 -8 8 h -88 c -4.417969 0 -8 -3.582031 -8 -8 v -84 c 0 -4.417969 3.582031 -8 8 -8 z m 0 0" fill="url(#a)"/>
    <path d="m 20 12 h 88 c 4.417969 0 8 3.582031 8 8 v 84 c 0 4.417969 -3.582031 8 -8 8 h -88 c -4.417969 0 -8 -3.582031 -8 -8 v -84 c 0 -4.417969 3.582031 -8 8 -8 z m 0 0" fill="#ffcc00"/>
    <g fill="none" stroke="#4368f5" stroke-linecap="round" stroke-linejoin="round" stroke-width="3.153282">
        <path d="m 66.36714057506 83.05853403979 c 0.58984347107 0.91796768943 3.17577856488 3.71874692239 4.46484024648 6.30468201619 c 0.83203024399 1.67187379523 1.33593626962 3.35546571192 1.05078024844 4.73046483896 c -0.48828098778 2.37109148021 -2.69140396796 4.15624640574 -4.85937100712 2.52343546793 c -1.12499904688 -0.85156219824 -1.86718598012 -2.33984193004 -2.12499831644 -3.67968459052 c -0.49609324393 -2.58593509381 0.28515602118 -5.88671396155 1.46874882864 -9.87889773256 z m 0 0 c -6.83593172669 -6.30858840704 -12.83202042769 -13.9296757897 -9.98827247201 -23.91404239641 c 0.98828009701 -3.46093458607 2.894528409 -6.02343238586 3.46484045137 -10.58592872479 c 0.17578128173 -1.3945300302 -0.28124963033 -2.50781043007 0 -3.95312143915 c 0.3164060969 -1.62890507251 1.66406153907 -3.54296564065 3.70702827538 -3.95702783 c 1.20703010146 -0.24609368931 2.5703105815 0.05078097887 3.70702827538 0.98828009701 c 0.81640520613 0.67187452566 1.4882797318 1.5039052952 1.62890454696 2.5703105815 c 0.17968767258 1.32421762262 0.02734368486 3.29296608604 0.08984383629 4.85155822542 c 0.05078097887 1.23437431187 0.54687474835 2.90234119071 0.98828062256 4.04296527544 c 6.24218186477 13.19920750346 2.70702900581 17.86717271654 -3.59765353593 29.95700621098 z m -1.33984266048 -42.44137046606 c 1.25781160589 0.23046865146 2.55468554364 0.964842803 4.9374961964 -0.41796858019 c 2.98046585444 -2.69140396796 6.7460878904 -6.55077570551 9.48436697193 -9.41796042965 c -3.12499758601 3.23046593461 -3.96874700255 4.08984038901 -8.17186852186 8.23046175689 c -0.71484272284 1.07031167715 -1.7148419924 2.29296681647 -1.94531064386 3.2187472876 c -0.29296827734 1.1796864166 -0.43749948335 2.96874720744 -0.35546842877 4.20702738462"/>
        <path d="m 78.90619272541 55.53511946045 s 3.79687158612 2.7968728421 3.79687158612 8.38280574461 c 0 5.58983876781 -3.79687158612 8.30077416447 -3.79687158612 8.30077416447"/>
        <path d="m 84.87103135069 50.15621791539 s 5.96483862528 4.59765227995 5.96483862528 13.78905097453 c 0 9.19139816904 -5.96483862528 13.65623841552 -5.96483862528 13.65623841552"/>
        <path d="m 90.29290161847 44.77340997947 s 8.12889927359 6.39843224334 8.12889927359 19.19920259531 c 0 12.79686396112 -8.12889927359 19.00779627572 -8.12889927359 19.00779627572"/>
        <path d="m 49.09371772044 55.53511946045 s -3.79687158612 2.7968728421 -3.79687158612 8.38280574461 c 0 5.58983876781 3.79687158612 8.30077416447 3.79687158612 8.30077416447"/>
        <path d="m 43.12887909516 50.15621791539 s -5.96093223443 4.59765227995 -5.96093223443 13.78905097453 c 0 9.19139816904 5.96093223443 13.65623841552 5.96093223443 13.65623841552"/>
        <path d="m 37.70700882738 44.77340997947 s -8.12889927359 6.39843224334 -8.12889927359 19.19920259531 c 0 12.79686396112 8.12889927359 19.00779627572 8.12889927359 19.00779627572"/>
    </g>
</svg>
