<?xml version="1.0" encoding="UTF-8"?>
<svg height="128px" viewBox="0 0 128 128" width="128px" xmlns="http://www.w3.org/2000/svg" xmlns:xlink="http://www.w3.org/1999/xlink">
    <filter id="a" height="100%" width="100%" x="0%" y="0%">
        <feColorMatrix color-interpolation-filters="sRGB" values="0 0 0 0 1 0 0 0 0 1 0 0 0 0 1 0 0 0 1 0"/>
    </filter>
    <linearGradient id="b" gradientTransform="matrix(0.232143 0 0 0.328947 -8.566589 263.826944)" gradientUnits="userSpaceOnUse" x1="88.595886" x2="536.595886" y1="-449.394012" y2="-449.394012">
        <stop offset="0" stop-color="#bc881b"/>
        <stop offset="0.0384615" stop-color="#e9b85a"/>
        <stop offset="0.0768555" stop-color="#d9991e"/>
        <stop offset="0.923077" stop-color="#d9991e"/>
        <stop offset="0.961538" stop-color="#e9b85a"/>
        <stop offset="1" stop-color="#bc881b"/>
    </linearGradient>
    <clipPath id="c">
        <rect height="128" width="128"/>
    </clipPath>
    <clipPath id="d">
        <rect height="128" width="128"/>
    </clipPath>
    <mask id="e">
        <g filter="url(#a)">
            <g clip-path="url(#d)" filter="url(#a)">
                <g clip-path="url(#c)">
                    <path d="m 20 16 h 88 c 4.417969 0 8 3.582031 8 8 v 84 c 0 4.417969 -3.582031 8 -8 8 h -88 c -4.417969 0 -8 -3.582031 -8 -8 v -84 c 0 -4.417969 3.582031 -8 8 -8 z m 0 0" fill="url(#b)"/>
                    <path d="m 20 12 h 88 c 4.417969 0 8 3.582031 8 8 v 84 c 0 4.417969 -3.582031 8 -8 8 h -88 c -4.417969 0 -8 -3.582031 -8 -8 v -84 c 0 -4.417969 3.582031 -8 8 -8 z m 0 0" fill="#ffcc00"/>
                    <path d="m 105.003565 133.500804 c 1.122342 1.74669 6.042806 7.075955 8.495606 11.996419 c 1.58317 3.181207 2.541992 6.384711 1.999403 9.001031 c -0.929091 4.511664 -5.121148 7.90842 -9.246311 4.801541 c -2.140625 -1.620335 -3.552843 -4.452203 -4.043403 -7.001628 c -0.943956 -4.920464 0.542589 -11.201118 2.794705 -18.797363 z m 0 0 c -13.00727 -12.003852 -24.416504 -26.5051 -19.005479 -45.503147 c 1.880479 -6.585395 5.507649 -11.461263 6.592827 -20.142687 c 0.334473 -2.653483 -0.535156 -4.77181 0 -7.521918 c 0.602051 -3.099447 3.166342 -6.741482 7.053657 -7.529351 c 2.296712 -0.468262 4.890734 0.096625 7.053657 1.880479 c 1.553439 1.278429 2.831868 2.8616 3.099446 4.890734 c 0.341906 2.519694 0.052029 6.265788 0.170953 9.231445 c 0.096625 2.348742 1.040582 5.522515 1.88048 7.692871 c 11.877495 25.11518 5.150879 33.997288 -6.845541 57.001574 z m -2.549425 -80.756565 c 2.393338 0.438531 4.861003 1.835883 9.394966 -0.795302 c 5.671169 -5.121148 12.836317 -12.464681 18.046658 -17.920301 c -5.946181 6.146864 -7.55165 7.782064 -15.549263 15.660753 c -1.360188 2.036567 -3.262966 4.36301 -3.701497 6.124566 c -0.557454 2.244683 -0.832465 5.648871 -0.676378 8.005045" fill="none" stroke="#4368f5" stroke-linecap="round" stroke-linejoin="round" stroke-width="6" transform="matrix(0.525547 0 0 0.525547 11.182832 12.897587)"/>
                    <path d="m 128.862615 81.129818 s 7.224609 5.321832 7.224609 15.95063 c 0 10.63623 -7.224609 15.794542 -7.224609 15.794542" fill="none" stroke="#4368f5" stroke-linecap="round" stroke-linejoin="round" stroke-width="6" transform="matrix(0.525547 0 0 0.525547 11.182832 12.897587)"/>
                    <path d="m 140.212387 70.894955 s 11.349772 8.748318 11.349772 26.237522 c 0 17.489203 -11.349772 25.984809 -11.349772 25.984809" fill="none" stroke="#4368f5" stroke-linecap="round" stroke-linejoin="round" stroke-width="6" transform="matrix(0.525547 0 0 0.525547 11.182832 12.897587)"/>
                    <path d="m 150.52901 60.652659 s 15.467502 12.174805 15.467502 36.531847 c 0 24.349609 -15.467502 36.167643 -15.467502 36.167643" fill="none" stroke="#4368f5" stroke-linecap="round" stroke-linejoin="round" stroke-width="6" transform="matrix(0.525547 0 0 0.525547 11.182832 12.897587)"/>
                    <path d="m 72.136052 81.129818 s -7.224609 5.321832 -7.224609 15.95063 c 0 10.63623 7.224609 15.794542 7.224609 15.794542" fill="none" stroke="#4368f5" stroke-linecap="round" stroke-linejoin="round" stroke-width="6" transform="matrix(0.525547 0 0 0.525547 11.182832 12.897587)"/>
                    <path d="m 60.78628 70.894955 s -11.342339 8.748318 -11.342339 26.237522 c 0 17.489203 11.342339 25.984809 11.342339 25.984809" fill="none" stroke="#4368f5" stroke-linecap="round" stroke-linejoin="round" stroke-width="6" transform="matrix(0.525547 0 0 0.525547 11.182832 12.897587)"/>
                    <path d="m 50.469657 60.652659 s -15.467502 12.174805 -15.467502 36.531847 c 0 24.349609 15.467502 36.167643 15.467502 36.167643" fill="none" stroke="#4368f5" stroke-linecap="round" stroke-linejoin="round" stroke-width="6" transform="matrix(0.525547 0 0 0.525547 11.182832 12.897587)"/>
                </g>
            </g>
        </g>
    </mask>
    <mask id="f">
        <g filter="url(#a)">
            <rect fill-opacity="0.8" height="184.32" width="184.32" x="-28.16" y="-28.16"/>
        </g>
    </mask>
    <linearGradient id="g" gradientTransform="matrix(0 0.37 -0.98462 0 295.38501 -30.360001)" gradientUnits="userSpaceOnUse" x1="300" x2="428" y1="235" y2="235">
        <stop offset="0" stop-color="#f9f06b"/>
        <stop offset="1" stop-color="#f5c211"/>
    </linearGradient>
    <clipPath id="h">
        <rect height="128" width="128"/>
    </clipPath>
    <clipPath id="i">
        <rect height="128" width="128"/>
    </clipPath>
    <path d="m 20 16 h 88 c 4.417969 0 8 3.582031 8 8 v 84 c 0 4.417969 -3.582031 8 -8 8 h -88 c -4.417969 0 -8 -3.582031 -8 -8 v -84 c 0 -4.417969 3.582031 -8 8 -8 z m 0 0" fill="url(#b)"/>
    <path d="m 20 12 h 88 c 4.417969 0 8 3.582031 8 8 v 84 c 0 4.417969 -3.582031 8 -8 8 h -88 c -4.417969 0 -8 -3.582031 -8 -8 v -84 c 0 -4.417969 3.582031 -8 8 -8 z m 0 0" fill="#ffcc00"/>
    <g fill="none" stroke="#4368f5" stroke-linecap="round" stroke-linejoin="round" stroke-width="3.153282">
        <path d="m 66.36714057506 83.05853403979 c 0.58984347107 0.91796768943 3.17577856488 3.71874692239 4.46484024648 6.30468201619 c 0.83203024399 1.67187379523 1.33593626962 3.35546571192 1.05078024844 4.73046483896 c -0.48828098778 2.37109148021 -2.69140396796 4.15624640574 -4.85937100712 2.52343546793 c -1.12499904688 -0.85156219824 -1.86718598012 -2.33984193004 -2.12499831644 -3.67968459052 c -0.49609324393 -2.58593509381 0.28515602118 -5.88671396155 1.46874882864 -9.87889773256 z m 0 0 c -6.83593172669 -6.30858840704 -12.83202042769 -13.9296757897 -9.98827247201 -23.91404239641 c 0.98828009701 -3.46093458607 2.894528409 -6.02343238586 3.46484045137 -10.58592872479 c 0.17578128173 -1.3945300302 -0.28124963033 -2.50781043007 0 -3.95312143915 c 0.3164060969 -1.62890507251 1.66406153907 -3.54296564065 3.70702827538 -3.95702783 c 1.20703010146 -0.24609368931 2.5703105815 0.05078097887 3.70702827538 0.98828009701 c 0.81640520613 0.67187452566 1.4882797318 1.5039052952 1.62890454696 2.5703105815 c 0.17968767258 1.32421762262 0.02734368486 3.29296608604 0.08984383629 4.85155822542 c 0.05078097887 1.23437431187 0.54687474835 2.90234119071 0.98828062256 4.04296527544 c 6.24218186477 13.19920750346 2.70702900581 17.86717271654 -3.59765353593 29.95700621098 z m -1.33984266048 -42.44137046606 c 1.25781160589 0.23046865146 2.55468554364 0.964842803 4.9374961964 -0.41796858019 c 2.98046585444 -2.69140396796 6.7460878904 -6.55077570551 9.48436697193 -9.41796042965 c -3.12499758601 3.23046593461 -3.96874700255 4.08984038901 -8.17186852186 8.23046175689 c -0.71484272284 1.07031167715 -1.7148419924 2.29296681647 -1.94531064386 3.2187472876 c -0.29296827734 1.1796864166 -0.43749948335 2.96874720744 -0.35546842877 4.20702738462"/>
        <path d="m 78.90619272541 55.53511946045 s 3.79687158612 2.7968728421 3.79687158612 8.38280574461 c 0 5.58983876781 -3.79687158612 8.30077416447 -3.79687158612 8.30077416447"/>
        <path d="m 84.87103135069 50.15621791539 s 5.96483862528 4.59765227995 5.96483862528 13.78905097453 c 0 9.19139816904 -5.96483862528 13.65623841552 -5.96483862528 13.65623841552"/>
        <path d="m 90.29290161847 44.77340997947 s 8.12889927359 6.39843224334 8.12889927359 19.19920259531 c 0 12.79686396112 -8.12889927359 19.00779627572 -8.12889927359 19.00779627572"/>
        <path d="m 49.09371772044 55.53511946045 s -3.79687158612 2.7968728421 -3.79687158612 8.38280574461 c 0 5.58983876781 3.79687158612 8.30077416447 3.79687158612 8.30077416447"/>
        <path d="m 43.12887909516 50.15621791539 s -5.96093223443 4.59765227995 -5.96093223443 13.78905097453 c 0 9.19139816904 5.96093223443 13.65623841552 5.96093223443 13.65623841552"/>
        <path d="m 37.70700882738 44.77340997947 s -8.12889927359 6.39843224334 -8.12889927359 19.19920259531 c 0 12.79686396112 8.12889927359 19.00779627572 8.12889927359 19.00779627572"/>
    </g>
    <g mask="url(#e)">
        <g clip-path="url(#i)">
            <g mask="url(#f)">
                <g clip-path="url(#h)">
                    <path d="m 128 80.640625 v 47.359375 h -128 v -47.359375 z m 0 0" fill="url(#g)"/>
                    <path d="m 13.308594 80.640625 l 47.355468 47.359375 h 21.214844 l -47.359375 -47.359375 z m 42.421875 0 l 47.363281 47.359375 h 21.214844 l -47.363282 -47.359375 z m 42.429687 0 l 29.839844 29.839844 v -21.210938 l -8.628906 -8.628906 z m -98.160156 7.90625 v 21.214844 l 18.238281 18.238281 h 21.214844 z m 0 0"/>
                </g>
            </g>
        </g>
    </g>
</svg>
