<?xml version="1.0" encoding="UTF-8"?>
<svg height="128px" viewBox="0 0 128 128" width="128px" xmlns="http://www.w3.org/2000/svg" xmlns:xlink="http://www.w3.org/1999/xlink">
    <filter id="a" height="100%" width="100%" x="0%" y="0%">
        <feColorMatrix color-interpolation-filters="sRGB" values="0 0 0 0 1 0 0 0 0 1 0 0 0 0 1 0 0 0 1 0"/>
    </filter>
    <linearGradient id="b" gradientTransform="matrix(0.232143 0 0 0.328947 -8.566589 263.826944)" gradientUnits="userSpaceOnUse" x1="88.595886" x2="536.595886" y1="-449.394012" y2="-449.394012">
        <stop offset="0" stop-color="#bc881b"/>
        <stop offset="0.0384615" stop-color="#e9b85a"/>
        <stop offset="0.0768555" stop-color="#d9991e"/>
        <stop offset="0.923077" stop-color="#d9991e"/>
        <stop offset="0.961538" stop-color="#e9b85a"/>
        <stop offset="1" stop-color="#bc881b"/>
    </linearGradient>
    <clipPath id="c">
        <rect height="128" width="128"/>
    </clipPath>
    <clipPath id="d">
        <rect height="128" width="128"/>
    </clipPath>
    <mask id="e">
        <g filter="url(#a)">
            <g clip-path="url(#d)" filter="url(#a)">
                <g clip-path="url(#c)">
                    <path d="m 20 16 h 88 c 4.417969 0 8 3.582031 8 8 v 84 c 0 4.417969 -3.582031 8 -8 8 h -88 c -4.417969 0 -8 -3.582031 -8 -8 v -84 c 0 -4.417969 3.582031 -8 8 -8 z m 0 0" fill="url(#b)"/>
                    <path d="m 20 12 h 88 c 4.417969 0 8 3.582031 8 8 v 84 c 0 4.417969 -3.582031 8 -8 8 h -88 c -4.417969 0 -8 -3.582031 -8 -8 v -84 c 0 -4.417969 3.582031 -8 8 -8 z m 0 0" fill="#ffcc00"/>
                    <path d="m 67.320312 98.484375 c -1.695312 -0.652344 -2.953124 -2.117187 -3.703124 -4.308594 c -0.695313 -2.039062 -0.40625 -6.132812 0.671874 -9.5 l 0.3125 -0.96875 l -2.0625 -2.214843 c -3.085937 -3.320313 -4.585937 -5.3125 -5.957031 -7.914063 c -1.832031 -3.46875 -2.632812 -6.878906 -2.445312 -10.417969 c 0.136719 -2.632812 0.613281 -4.523437 2.007812 -7.980468 c 1.773438 -4.390626 1.871094 -4.777344 2.035157 -8.171876 c 0.082031 -1.695312 0.269531 -3.40625 0.417968 -3.800781 c 0.738282 -1.96875 2.335938 -3.46875 4.304688 -4.042969 c 0.960937 -0.285156 1.359375 -0.300781 2.53125 -0.097656 c 1.964844 0.332032 2.617187 0.296875 3.441406 -0.199218 c 0.394531 -0.238282 2.773438 -2.503907 5.285156 -5.035157 c 4.234375 -4.269531 4.617188 -4.601562 5.292969 -4.601562 c 0.910156 0 1.546875 0.597656 1.546875 1.453125 c 0 0.527344 -0.488281 1.140625 -3.054688 3.851562 c -1.679687 1.773438 -3.488281 3.59375 -4.019531 4.046875 c -1.132812 0.960938 -2.476562 2.679688 -2.945312 3.761719 c -0.234375 0.546875 -0.351563 1.632812 -0.410157 3.84375 c -0.09375 3.484375 0.097657 4.398438 1.785157 8.421875 c 2.011719 4.804687 2.738281 8.746094 2.292969 12.46875 c -0.378907 3.160156 -1.390626 5.964844 -4.066407 11.242187 l -2.328125 4.59375 l 1.003906 1.261719 c 4.617188 5.824219 5.476563 10.308594 2.535157 13.246094 c -0.707031 0.707031 -2.300781 1.894531 -4.472657 1.0625 z m 2.378907 -3.386719 c 0.722656 -0.765625 0.804687 -2.542968 0.191406 -4.015625 c -0.515625 -1.238281 -2.644531 -4.59375 -2.808594 -4.429687 c -0.273437 0.269531 -0.660156 2.875 -0.664062 4.441406 c 0 1.957031 0.390625 3.125 1.347656 4.007812 c 0.703125 0.652344 1.316406 0.652344 1.933594 -0.003906 z m -1.691407 -18.660156 c 2.195313 -4.367188 3 -6.550781 3.449219 -9.335938 c 0.523438 -3.238281 -0.082031 -6.671874 -1.964843 -11.152343 c -1.75 -4.152344 -1.898438 -4.777344 -2.042969 -8.449219 c -0.109375 -2.757812 -0.203125 -3.519531 -0.496094 -3.964844 c -0.921875 -1.40625 -3.050781 -1.816406 -4.238281 -0.816406 c -1.144532 0.964844 -1.324219 1.546875 -1.359375 4.496094 c -0.039063 3.070312 -0.363281 4.402344 -2.132813 8.734375 c -1.523437 3.726562 -1.921875 5.40625 -1.929687 8.117187 c -0.011719 3.945313 1.328125 7.546875 4.269531 11.480469 c 1.242188 1.660156 4.011719 4.65625 4.308594 4.65625 c 0.136718 0 1.101562 -1.695313 2.136718 -3.765625 z m -31.296874 7.703125 c -1.554688 -0.949219 -4.269532 -4.476563 -5.808594 -7.539063 c -3.863282 -7.683593 -3.871094 -17.773437 -0.019532 -25.449218 c 1.132813 -2.257813 2.847657 -4.695313 4.464844 -6.335938 c 1.398438 -1.425781 1.664063 -1.609375 2.328125 -1.609375 c 0.574219 0 0.855469 0.132813 1.191407 0.5625 c 0.691406 0.875 0.425781 1.527344 -1.390626 3.425781 c -3.402343 3.554688 -5.519531 8.265626 -6.191406 13.789063 c -0.304687 2.488281 -0.285156 3.855469 0.085938 6.449219 c 0.761718 5.34375 2.738281 9.527344 6.261718 13.265625 c 1.554688 1.652343 1.679688 1.847656 1.5625 2.449219 c -0.144531 0.75 -0.792968 1.371093 -1.429687 1.367187 c -0.242187 0 -0.71875 -0.167969 -1.054687 -0.375 z m 52.640624 -0.050781 c -0.972656 -0.765625 -0.761718 -1.492188 0.96875 -3.316406 c 2.496094 -2.625 4.082032 -5.265626 5.226563 -8.691407 c 1.042969 -3.125 1.167969 -4.019531 1.164063 -8.21875 c -0.003907 -3.394531 -0.066407 -4.160156 -0.484376 -5.859375 c -1.132812 -4.601562 -3.394531 -8.722656 -6.363281 -11.605468 c -0.847656 -0.816407 -1.054687 -1.152344 -1.054687 -1.695313 c 0 -0.898437 0.617187 -1.496094 1.546875 -1.496094 c 0.613281 0 0.917969 0.195313 2.003906 1.285157 c 1.953125 1.960937 3.328125 3.914062 4.65625 6.628906 c 1.863281 3.804687 2.570313 6.378906 2.894531 10.550781 c 0.460938 5.945313 -0.824218 11.6875 -3.707031 16.566406 c -1.890625 3.199219 -4.761719 6.277344 -5.851563 6.277344 c -0.253906 0 -0.703124 -0.191406 -1 -0.425781 z m -48.355468 -6.425782 c -2.441406 -2.488281 -3.808594 -4.972656 -4.832032 -8.769531 c -0.398437 -1.476562 -0.472656 -2.25 -0.472656 -5.03125 c 0 -3.613281 0.3125 -5.261719 1.550782 -8.234375 c 1.015624 -2.445312 3.40625 -5.726562 4.90625 -6.734375 c 0.710937 -0.480469 1.5 -0.429687 2.027343 0.132813 c 0.765625 0.8125 0.585938 1.476562 -0.792969 2.953125 c -2.652343 2.832031 -4.105468 6.039062 -4.503906 9.914062 c -0.5625 5.460938 0.996094 10.144531 4.59375 13.832031 c 0.945313 0.96875 1.148438 1.304688 1.148438 1.886719 c 0 0.519531 -0.144532 0.820313 -0.539063 1.132813 c -0.957031 0.753906 -1.460937 0.574218 -3.085937 -1.082032 z m 43.070312 1.246094 c -0.523437 -0.402344 -0.839844 -1.15625 -0.6875 -1.644531 c 0.074219 -0.25 0.667969 -1.011719 1.320313 -1.695313 c 1.945312 -2.039062 3.078125 -4.03125 3.972656 -6.980468 c 0.601563 -1.976563 0.632813 -7.359375 0.054687 -9.25 c -0.96875 -3.171875 -2.148437 -5.257813 -4.089843 -7.238282 c -1.070313 -1.097656 -1.253907 -1.390624 -1.253907 -2.03125 c 0 -0.894531 0.636719 -1.519531 1.550782 -1.519531 c 1.445312 0 4.609375 3.992188 6.050781 7.628907 c 1.011719 2.558593 1.367187 4.570312 1.367187 7.683593 c 0 2.210938 -0.097656 3.28125 -0.425781 4.625 c -0.804687 3.304688 -1.964843 5.703125 -3.910156 8.101563 c -1.820313 2.234375 -3.089844 2.980468 -3.949219 2.320312 z m -35.65625 -5.371094 c -1.503906 -0.652343 -3.878906 -4.347656 -4.421875 -6.882812 c -0.140625 -0.667969 -0.195312 -2.070312 -0.136719 -3.496094 c 0.113282 -2.675781 0.617188 -4.339844 1.914063 -6.292968 c 0.96875 -1.460938 2.617187 -2.972657 3.238281 -2.972657 c 0.824219 0 1.578125 0.746094 1.578125 1.5625 c 0 0.570313 -0.195312 0.910157 -0.996093 1.730469 c -2.332032 2.394531 -3.242188 5.855469 -2.394532 9.105469 c 0.433594 1.671875 0.957032 2.601562 2.257813 4.003906 c 1.238281 1.335937 1.441406 2.101563 0.773437 2.875 c -0.496094 0.574219 -1.066406 0.6875 -1.8125 0.367187 z m 30.011719 0.09375 c -0.542969 -0.21875 -0.851563 -0.601562 -1.019531 -1.269531 c -0.113282 -0.453125 0.046875 -0.742187 1.015625 -1.828125 c 2.8125 -3.148437 3.453125 -7.078125 1.765625 -10.800781 c -0.328125 -0.722656 -1.050782 -1.800781 -1.609375 -2.394531 c -1.214844 -1.296875 -1.402344 -1.78125 -0.984375 -2.589844 c 0.335937 -0.644531 0.695312 -0.855469 1.464844 -0.855469 c 0.664062 0 2.496093 1.824219 3.417968 3.402344 c 1.316406 2.25 1.710938 3.769531 1.710938 6.566406 c 0 3.335938 -0.640625 5.269531 -2.574219 7.742188 c -1.339844 1.722656 -2.351563 2.363281 -3.1875 2.027343 z m 0 0" fill="#4267f2"/>
                </g>
            </g>
        </g>
    </mask>
    <mask id="f">
        <g filter="url(#a)">
            <rect fill-opacity="0.8" height="184.32" width="184.32" x="-28.16" y="-28.16"/>
        </g>
    </mask>
    <linearGradient id="g" gradientTransform="matrix(0 0.37 -0.98462 0 295.38501 -30.360001)" gradientUnits="userSpaceOnUse" x1="300" x2="428" y1="235" y2="235">
        <stop offset="0" stop-color="#f9f06b"/>
        <stop offset="1" stop-color="#f5c211"/>
    </linearGradient>
    <clipPath id="h">
        <rect height="128" width="128"/>
    </clipPath>
    <clipPath id="i">
        <rect height="128" width="128"/>
    </clipPath>
    <path d="m 20 16 h 88 c 4.417969 0 8 3.582031 8 8 v 84 c 0 4.417969 -3.582031 8 -8 8 h -88 c -4.417969 0 -8 -3.582031 -8 -8 v -84 c 0 -4.417969 3.582031 -8 8 -8 z m 0 0" fill="url(#b)"/>
    <path d="m 20 12 h 88 c 4.417969 0 8 3.582031 8 8 v 84 c 0 4.417969 -3.582031 8 -8 8 h -88 c -4.417969 0 -8 -3.582031 -8 -8 v -84 c 0 -4.417969 3.582031 -8 8 -8 z m 0 0" fill="#ffcc00"/>
    <path d="m 67.320312 98.484375 c -1.695312 -0.652344 -2.953124 -2.117187 -3.703124 -4.308594 c -0.695313 -2.039062 -0.40625 -6.132812 0.671874 -9.5 l 0.3125 -0.96875 l -2.0625 -2.214843 c -3.085937 -3.320313 -4.585937 -5.3125 -5.957031 -7.914063 c -1.832031 -3.46875 -2.632812 -6.878906 -2.445312 -10.417969 c 0.136719 -2.632812 0.613281 -4.523437 2.007812 -7.980468 c 1.773438 -4.390626 1.871094 -4.777344 2.035157 -8.171876 c 0.082031 -1.695312 0.269531 -3.40625 0.417968 -3.800781 c 0.738282 -1.96875 2.335938 -3.46875 4.304688 -4.042969 c 0.960937 -0.285156 1.359375 -0.300781 2.53125 -0.097656 c 1.964844 0.332032 2.617187 0.296875 3.441406 -0.199218 c 0.394531 -0.238282 2.773438 -2.503907 5.285156 -5.035157 c 4.234375 -4.269531 4.617188 -4.601562 5.292969 -4.601562 c 0.910156 0 1.546875 0.597656 1.546875 1.453125 c 0 0.527344 -0.488281 1.140625 -3.054688 3.851562 c -1.679687 1.773438 -3.488281 3.59375 -4.019531 4.046875 c -1.132812 0.960938 -2.476562 2.679688 -2.945312 3.761719 c -0.234375 0.546875 -0.351563 1.632812 -0.410157 3.84375 c -0.09375 3.484375 0.097657 4.398438 1.785157 8.421875 c 2.011719 4.804687 2.738281 8.746094 2.292969 12.46875 c -0.378907 3.160156 -1.390626 5.964844 -4.066407 11.242187 l -2.328125 4.59375 l 1.003906 1.261719 c 4.617188 5.824219 5.476563 10.308594 2.535157 13.246094 c -0.707031 0.707031 -2.300781 1.894531 -4.472657 1.0625 z m 2.378907 -3.386719 c 0.722656 -0.765625 0.804687 -2.542968 0.191406 -4.015625 c -0.515625 -1.238281 -2.644531 -4.59375 -2.808594 -4.429687 c -0.273437 0.269531 -0.660156 2.875 -0.664062 4.441406 c 0 1.957031 0.390625 3.125 1.347656 4.007812 c 0.703125 0.652344 1.316406 0.652344 1.933594 -0.003906 z m -1.691407 -18.660156 c 2.195313 -4.367188 3 -6.550781 3.449219 -9.335938 c 0.523438 -3.238281 -0.082031 -6.671874 -1.964843 -11.152343 c -1.75 -4.152344 -1.898438 -4.777344 -2.042969 -8.449219 c -0.109375 -2.757812 -0.203125 -3.519531 -0.496094 -3.964844 c -0.921875 -1.40625 -3.050781 -1.816406 -4.238281 -0.816406 c -1.144532 0.964844 -1.324219 1.546875 -1.359375 4.496094 c -0.039063 3.070312 -0.363281 4.402344 -2.132813 8.734375 c -1.523437 3.726562 -1.921875 5.40625 -1.929687 8.117187 c -0.011719 3.945313 1.328125 7.546875 4.269531 11.480469 c 1.242188 1.660156 4.011719 4.65625 4.308594 4.65625 c 0.136718 0 1.101562 -1.695313 2.136718 -3.765625 z m -31.296874 7.703125 c -1.554688 -0.949219 -4.269532 -4.476563 -5.808594 -7.539063 c -3.863282 -7.683593 -3.871094 -17.773437 -0.019532 -25.449218 c 1.132813 -2.257813 2.847657 -4.695313 4.464844 -6.335938 c 1.398438 -1.425781 1.664063 -1.609375 2.328125 -1.609375 c 0.574219 0 0.855469 0.132813 1.191407 0.5625 c 0.691406 0.875 0.425781 1.527344 -1.390626 3.425781 c -3.402343 3.554688 -5.519531 8.265626 -6.191406 13.789063 c -0.304687 2.488281 -0.285156 3.855469 0.085938 6.449219 c 0.761718 5.34375 2.738281 9.527344 6.261718 13.265625 c 1.554688 1.652343 1.679688 1.847656 1.5625 2.449219 c -0.144531 0.75 -0.792968 1.371093 -1.429687 1.367187 c -0.242187 0 -0.71875 -0.167969 -1.054687 -0.375 z m 52.640624 -0.050781 c -0.972656 -0.765625 -0.761718 -1.492188 0.96875 -3.316406 c 2.496094 -2.625 4.082032 -5.265626 5.226563 -8.691407 c 1.042969 -3.125 1.167969 -4.019531 1.164063 -8.21875 c -0.003907 -3.394531 -0.066407 -4.160156 -0.484376 -5.859375 c -1.132812 -4.601562 -3.394531 -8.722656 -6.363281 -11.605468 c -0.847656 -0.816407 -1.054687 -1.152344 -1.054687 -1.695313 c 0 -0.898437 0.617187 -1.496094 1.546875 -1.496094 c 0.613281 0 0.917969 0.195313 2.003906 1.285157 c 1.953125 1.960937 3.328125 3.914062 4.65625 6.628906 c 1.863281 3.804687 2.570313 6.378906 2.894531 10.550781 c 0.460938 5.945313 -0.824218 11.6875 -3.707031 16.566406 c -1.890625 3.199219 -4.761719 6.277344 -5.851563 6.277344 c -0.253906 0 -0.703124 -0.191406 -1 -0.425781 z m -48.355468 -6.425782 c -2.441406 -2.488281 -3.808594 -4.972656 -4.832032 -8.769531 c -0.398437 -1.476562 -0.472656 -2.25 -0.472656 -5.03125 c 0 -3.613281 0.3125 -5.261719 1.550782 -8.234375 c 1.015624 -2.445312 3.40625 -5.726562 4.90625 -6.734375 c 0.710937 -0.480469 1.5 -0.429687 2.027343 0.132813 c 0.765625 0.8125 0.585938 1.476562 -0.792969 2.953125 c -2.652343 2.832031 -4.105468 6.039062 -4.503906 9.914062 c -0.5625 5.460938 0.996094 10.144531 4.59375 13.832031 c 0.945313 0.96875 1.148438 1.304688 1.148438 1.886719 c 0 0.519531 -0.144532 0.820313 -0.539063 1.132813 c -0.957031 0.753906 -1.460937 0.574218 -3.085937 -1.082032 z m 43.070312 1.246094 c -0.523437 -0.402344 -0.839844 -1.15625 -0.6875 -1.644531 c 0.074219 -0.25 0.667969 -1.011719 1.320313 -1.695313 c 1.945312 -2.039062 3.078125 -4.03125 3.972656 -6.980468 c 0.601563 -1.976563 0.632813 -7.359375 0.054687 -9.25 c -0.96875 -3.171875 -2.148437 -5.257813 -4.089843 -7.238282 c -1.070313 -1.097656 -1.253907 -1.390624 -1.253907 -2.03125 c 0 -0.894531 0.636719 -1.519531 1.550782 -1.519531 c 1.445312 0 4.609375 3.992188 6.050781 7.628907 c 1.011719 2.558593 1.367187 4.570312 1.367187 7.683593 c 0 2.210938 -0.097656 3.28125 -0.425781 4.625 c -0.804687 3.304688 -1.964843 5.703125 -3.910156 8.101563 c -1.820313 2.234375 -3.089844 2.980468 -3.949219 2.320312 z m -35.65625 -5.371094 c -1.503906 -0.652343 -3.878906 -4.347656 -4.421875 -6.882812 c -0.140625 -0.667969 -0.195312 -2.070312 -0.136719 -3.496094 c 0.113282 -2.675781 0.617188 -4.339844 1.914063 -6.292968 c 0.96875 -1.460938 2.617187 -2.972657 3.238281 -2.972657 c 0.824219 0 1.578125 0.746094 1.578125 1.5625 c 0 0.570313 -0.195312 0.910157 -0.996093 1.730469 c -2.332032 2.394531 -3.242188 5.855469 -2.394532 9.105469 c 0.433594 1.671875 0.957032 2.601562 2.257813 4.003906 c 1.238281 1.335937 1.441406 2.101563 0.773437 2.875 c -0.496094 0.574219 -1.066406 0.6875 -1.8125 0.367187 z m 30.011719 0.09375 c -0.542969 -0.21875 -0.851563 -0.601562 -1.019531 -1.269531 c -0.113282 -0.453125 0.046875 -0.742187 1.015625 -1.828125 c 2.8125 -3.148437 3.453125 -7.078125 1.765625 -10.800781 c -0.328125 -0.722656 -1.050782 -1.800781 -1.609375 -2.394531 c -1.214844 -1.296875 -1.402344 -1.78125 -0.984375 -2.589844 c 0.335937 -0.644531 0.695312 -0.855469 1.464844 -0.855469 c 0.664062 0 2.496093 1.824219 3.417968 3.402344 c 1.316406 2.25 1.710938 3.769531 1.710938 6.566406 c 0 3.335938 -0.640625 5.269531 -2.574219 7.742188 c -1.339844 1.722656 -2.351563 2.363281 -3.1875 2.027343 z m 0 0" fill="#4267f2"/>
    <g mask="url(#e)">
        <g clip-path="url(#i)">
            <g mask="url(#f)">
                <g clip-path="url(#h)">
                    <path d="m 128 80.640625 v 47.359375 h -128 v -47.359375 z m 0 0" fill="url(#g)"/>
                    <path d="m 13.308594 80.640625 l 47.355468 47.359375 h 21.214844 l -47.359375 -47.359375 z m 42.421875 0 l 47.363281 47.359375 h 21.214844 l -47.363282 -47.359375 z m 42.429687 0 l 29.839844 29.839844 v -21.210938 l -8.628906 -8.628906 z m -98.160156 7.90625 v 21.214844 l 18.238281 18.238281 h 21.214844 z m 0 0"/>
                </g>
            </g>
        </g>
    </g>
</svg>
