<?xml version="1.0" encoding="UTF-8"?>
<svg height="16px" viewBox="0 0 16 16" width="16px" xmlns="http://www.w3.org/2000/svg">
    <g fill="#241f31">
        <path d="m 11.121094 1.0625 c -0.171875 -0.042969 -0.351563 0.007812 -0.476563 0.132812 v 0.003907 c -0.484375 0.496093 -0.785156 0.796875 -1.261719 1.265625 c -0.171874 0.167968 -0.351562 0.347656 -0.507812 0.488281 c -0.199219 0.113281 -0.285156 0.097656 -0.425781 0.050781 c -0.03125 -0.007812 -0.058594 -0.015625 -0.089844 -0.023437 c -0.03125 -0.007813 -0.03125 -0.011719 -0.070313 -0.015625 c -0.007812 0 -0.015624 0 -0.023437 0.003906 c -0.152344 -0.023438 -0.304687 -0.027344 -0.453125 0.003906 c -0.648438 0.128906 -1.011719 0.65625 -1.113281 1.160156 c -0.082031 0.429688 0.011719 0.671876 -0.003907 0.804688 c -0.097656 0.773438 -0.4375 1.210938 -0.65625 1.984375 c -0.3125 1.089844 -0.132812 2.101563 0.296876 2.953125 c 0.386718 0.761719 0.964843 1.398438 1.570312 1.980469 c -0.191406 0.667969 -0.335938 1.277343 -0.222656 1.867187 c 0.070312 0.367188 0.242187 0.75 0.601562 1.019532 c 0.347656 0.261718 0.839844 0.269531 1.15625 0.074218 c 0.320313 -0.195312 0.507813 -0.511718 0.582032 -0.859375 c 0.09375 -0.464843 -0.0625 -0.875 -0.246094 -1.246093 c -0.152344 -0.308594 -0.359375 -0.585938 -0.539063 -0.816407 c -0.09375 -0.125 -0.121093 -0.15625 -0.1875 -0.242187 c 0.535157 -1.003906 0.984375 -1.804688 1.164063 -2.675782 c 0.195312 -0.957031 0.027344 -1.96875 -0.601563 -3.308593 l 0.011719 0.035156 c -0.070312 -0.1875 -0.152344 -0.503906 -0.15625 -0.625 c -0.007812 -0.148437 0 -0.335937 0 -0.535156 c -0.011719 -0.171875 0.015625 -0.503907 0.054688 -0.652344 c -0.011719 0.042969 0.136718 -0.207031 0.28125 -0.429687 c 0.140624 -0.136719 0.175781 -0.179688 0.28125 -0.285157 c 0.449218 -0.433593 0.902343 -0.890625 1.269531 -1.277343 c 0.003906 -0.003907 0.003906 -0.003907 0.007812 -0.007813 h 0.003907 c 0.117187 -0.132813 0.164062 -0.316406 0.113281 -0.484375 s -0.1875 -0.300781 -0.359375 -0.34375 z m -3.109375 2.890625 c 0.085937 -0.019531 0.195312 -0.003906 0.304687 0.085937 c 0.105469 0.089844 0.132813 0.144532 0.136719 0.179688 c 0.023437 0.15625 0 0.546875 0.015625 0.898438 c 0.015625 0.355468 0.125 0.6875 0.222656 0.945312 c 0.007813 0.011719 0.011719 0.023438 0.015625 0.035156 c 0.582031 1.230469 0.675781 1.953125 0.527344 2.679688 c -0.117187 0.578125 -0.464844 1.253906 -0.898437 2.082031 c -0.445313 -0.457031 -0.851563 -0.929687 -1.105469 -1.433594 c -0.34375 -0.679687 -0.472657 -1.382812 -0.230469 -2.230469 c 0.164062 -0.574218 0.5625 -1.132812 0.6875 -2.132812 c 0.050781 -0.410156 -0.03125 -0.601562 -0.003906 -0.734375 c 0.023437 -0.128906 0.183594 -0.347656 0.328125 -0.375 z m 0.679687 8.917969 c 0.066406 0.097656 0.148438 0.199218 0.191406 0.285156 c 0.136719 0.277344 0.175782 0.523438 0.160157 0.597656 c -0.023438 0.109375 -0.097657 0.195313 -0.121094 0.210938 s 0.042969 0.039062 -0.03125 -0.019532 c -0.082031 -0.058593 -0.195313 -0.257812 -0.226563 -0.410156 c -0.03125 -0.160156 -0.015624 -0.386718 0.027344 -0.664062 z m 0 0"/>
        <path d="m 10.824219 5.863281 c -0.132813 0.019531 -0.25 0.089844 -0.328125 0.195313 c -0.164063 0.222656 -0.117188 0.535156 0.105468 0.699218 c 0 0 0.535157 0.367188 0.535157 1.226563 c 0 0.863281 -0.527344 1.207031 -0.527344 1.207031 c -0.226563 0.164063 -0.277344 0.476563 -0.117187 0.699219 c 0.160156 0.226563 0.472656 0.277344 0.695312 0.117187 c 0 0 0.949219 -0.707031 0.949219 -2.023437 c 0 -1.3125 -0.941407 -2.03125 -0.941407 -2.03125 c -0.105468 -0.078125 -0.242187 -0.109375 -0.371093 -0.089844 z m 0 0"/>
        <path d="m 11.996094 4.8125 c -0.132813 0.019531 -0.253906 0.085938 -0.332032 0.191406 c -0.171874 0.21875 -0.128906 0.535156 0.089844 0.703125 c 0 0 0.964844 0.714844 0.964844 2.285157 c 0 1.570312 -0.960938 2.253906 -0.960938 2.253906 c -0.21875 0.164062 -0.265624 0.480468 -0.101562 0.699218 c 0.167969 0.222657 0.480469 0.265626 0.703125 0.101563 c 0 0 1.359375 -1.050781 1.359375 -3.054687 c 0 -2.003907 -1.355469 -3.078126 -1.355469 -3.078126 c -0.105469 -0.082031 -0.238281 -0.117187 -0.367187 -0.101562 z m 0 0"/>
        <path d="m 13.054688 3.765625 c -0.132813 0.015625 -0.253907 0.085937 -0.335938 0.1875 c -0.171875 0.21875 -0.132812 0.53125 0.085938 0.703125 c 0 0 1.390624 1.0625 1.390624 3.339844 s -1.386718 3.300781 -1.386718 3.300781 c -0.21875 0.167969 -0.261719 0.480469 -0.09375 0.699219 c 0.167968 0.21875 0.480468 0.261718 0.699218 0.09375 c 0 0 1.78125 -1.394532 1.78125 -4.09375 c 0 -2.699219 -1.773437 -4.125 -1.773437 -4.125 c -0.105469 -0.082032 -0.238281 -0.121094 -0.367187 -0.105469 z m 0 0"/>
        <path d="m 5.175781 5.863281 c -0.128906 -0.019531 -0.265625 0.011719 -0.371093 0.089844 c 0 0 -0.941407 0.71875 -0.941407 2.03125 c 0 1.316406 0.949219 2.023437 0.949219 2.023437 c 0.222656 0.160157 0.535156 0.109376 0.695312 -0.117187 c 0.160157 -0.222656 0.109376 -0.535156 -0.117187 -0.699219 c 0 0 -0.527344 -0.34375 -0.527344 -1.207031 c 0 -0.859375 0.535157 -1.226563 0.535157 -1.226563 c 0.222656 -0.164062 0.269531 -0.476562 0.105468 -0.699218 c -0.078125 -0.105469 -0.195312 -0.175782 -0.328125 -0.195313 z m 0 0"/>
        <path d="m 4.007812 4.8125 c -0.132812 -0.015625 -0.265624 0.019531 -0.371093 0.101562 c 0 0 -1.355469 1.074219 -1.355469 3.078126 c 0 2.003906 1.359375 3.054687 1.359375 3.054687 c 0.222656 0.164063 0.535156 0.121094 0.703125 -0.101563 c 0.164062 -0.21875 0.117188 -0.535156 -0.101562 -0.699218 c 0 0 -0.960938 -0.683594 -0.960938 -2.253906 c 0 -1.570313 0.964844 -2.285157 0.964844 -2.285157 c 0.21875 -0.167969 0.261718 -0.484375 0.089844 -0.703125 c -0.078126 -0.105468 -0.199219 -0.171875 -0.328126 -0.191406 z m 0 0"/>
        <path d="m 2.945312 3.765625 c -0.128906 -0.015625 -0.261718 0.023437 -0.367187 0.105469 c 0 0 -1.773437 1.425781 -1.773437 4.125 c 0 2.699218 1.78125 4.09375 1.78125 4.09375 c 0.21875 0.167968 0.53125 0.125 0.699218 -0.09375 c 0.167969 -0.21875 0.125 -0.53125 -0.09375 -0.699219 c 0 0 -1.386718 -1.023437 -1.386718 -3.300781 s 1.390624 -3.339844 1.390624 -3.339844 c 0.21875 -0.171875 0.257813 -0.484375 0.085938 -0.703125 c -0.082031 -0.101563 -0.203125 -0.171875 -0.335938 -0.1875 z m 0 0"/>
    </g>
</svg>
