<?xml version="1.0" encoding="UTF-8"?>
<svg height="16px" viewBox="0 0 16 16" width="16px" xmlns="http://www.w3.org/2000/svg">
    <path d="m 10.90625 1.230469 c -0.050781 0 -0.136719 0.015625 -0.203125 0.050781 c -0.066406 0.03125 -0.125 0.078125 -0.199219 0.140625 c -0.148437 0.128906 -0.363281 0.34375 -0.761718 0.746094 c -0.234376 0.238281 -0.464844 0.460937 -0.640626 0.628906 c -0.089843 0.085937 -0.164062 0.15625 -0.222656 0.207031 c -0.054687 0.054688 -0.117187 0.09375 -0.082031 0.074219 c -0.054687 0.03125 -0.074219 0.039063 -0.136719 0.042969 s -0.171875 -0.007813 -0.347656 -0.039063 c -0.234375 -0.039062 -0.386719 -0.03125 -0.582031 0.027344 c -0.445313 0.128906 -0.800781 0.464844 -0.964844 0.902344 c -0.042969 0.113281 -0.042969 0.1875 -0.058594 0.324219 c -0.011719 0.136718 -0.027343 0.296874 -0.035156 0.460937 c -0.03125 0.636719 -0.03125 0.636719 -0.363281 1.460937 c -0.269532 0.660157 -0.367188 1.054688 -0.394532 1.574219 c -0.039062 0.707031 0.125 1.394531 0.484376 2.078125 c 0.269531 0.507813 0.570312 0.90625 1.15625 1.535156 l 0.292968 0.316407 l -0.015625 0.050781 s 0 0 -0.003906 0 c -0.214844 0.675781 -0.292969 1.441406 -0.125 1.933594 c 0.160156 0.457031 0.445313 0.800781 0.835937 0.953125 c 0.257813 0.097656 0.503907 0.078125 0.691407 0.011719 c 0.1875 -0.070313 0.320312 -0.183594 0.402343 -0.265626 c 0.328126 -0.324218 0.453126 -0.777343 0.359376 -1.25 c -0.089844 -0.476562 -0.371094 -0.988281 -0.816407 -1.550781 l -0.09375 -0.117187 l 0.367188 -0.730469 c 0.507812 -1 0.714843 -1.5625 0.789062 -2.1875 c 0.089844 -0.75 -0.058593 -1.539063 -0.449219 -2.464844 c -0.3125 -0.75 -0.332031 -0.839843 -0.316406 -1.484375 c 0.011719 -0.410156 0.046875 -0.609375 0.058594 -0.632812 c 0.058594 -0.136719 0.3125 -0.46875 0.488281 -0.621094 c 0.136719 -0.113281 0.457031 -0.441406 0.773438 -0.777344 c 0.242187 -0.253906 0.386719 -0.410156 0.480469 -0.53125 c 0.09375 -0.117187 0.160156 -0.230468 0.160156 -0.355468 c 0 -0.277344 -0.253906 -0.507813 -0.527344 -0.507813 z m -7.847656 2.628906 c -0.085938 0 -0.210938 0.027344 -0.300782 0.089844 c -0.09375 0.066406 -0.175781 0.148437 -0.308593 0.28125 c -0.324219 0.332031 -0.65625 0.804687 -0.878907 1.253906 c -0.761718 1.515625 -0.761718 3.472656 0.003907 4.988281 c 0.152343 0.304688 0.359375 0.625 0.566406 0.898438 c 0.210937 0.269531 0.40625 0.492187 0.613281 0.617187 c 0.101563 0.058594 0.171875 0.105469 0.320313 0.105469 c 0.273437 0 0.453125 -0.207031 0.5 -0.449219 c 0.015625 -0.078125 0 -0.230469 -0.0625 -0.328125 s -0.144531 -0.183594 -0.292969 -0.339844 c -0.628906 -0.671874 -0.972656 -1.402343 -1.113281 -2.367187 c -0.066407 -0.476563 -0.070313 -0.691406 -0.011719 -1.148437 c 0.121094 -0.992188 0.496094 -1.824219 1.097656 -2.453126 c 0.175782 -0.183593 0.289063 -0.308593 0.355469 -0.46875 c 0.03125 -0.078124 0.046875 -0.175781 0.027344 -0.265624 c -0.019531 -0.089844 -0.0625 -0.160157 -0.105469 -0.21875 c -0.089844 -0.109376 -0.265625 -0.195313 -0.410156 -0.195313 z m 9.894531 0 c -0.140625 0 -0.277344 0.046875 -0.375 0.144531 c -0.101563 0.097656 -0.15625 0.234375 -0.15625 0.375 c 0 0.078125 0.027344 0.183594 0.078125 0.261719 c 0.046875 0.082031 0.113281 0.144531 0.195312 0.226563 c 0.519532 0.503906 0.925782 1.238281 1.128907 2.066406 c 0.078125 0.304687 0.082031 0.40625 0.085937 1.042968 c 0 0.785157 -0.015625 0.886719 -0.207031 1.464844 c -0.207031 0.617188 -0.480469 1.078125 -0.929687 1.550782 c -0.167969 0.175781 -0.285157 0.300781 -0.335938 0.480468 c -0.027344 0.085938 -0.023438 0.199219 0.015625 0.289063 c 0.039063 0.089843 0.097656 0.152343 0.164063 0.199219 c 0.097656 0.078124 0.167968 0.132812 0.335937 0.132812 c 0.160156 0 0.246094 -0.070312 0.351563 -0.148438 c 0.101562 -0.078124 0.203124 -0.175781 0.3125 -0.292968 c 0.21875 -0.234375 0.449218 -0.539063 0.636718 -0.855469 c 0.566406 -0.960937 0.816406 -2.089844 0.726563 -3.25 c -0.058594 -0.804687 -0.207031 -1.335937 -0.5625 -2.070313 c -0.261719 -0.527343 -0.539063 -0.921874 -0.921875 -1.308593 c -0.105469 -0.101563 -0.175782 -0.171875 -0.261719 -0.226563 c -0.085937 -0.054687 -0.199219 -0.082031 -0.28125 -0.082031 z m -4.816406 0.292969 c 0.085937 0.019531 0.175781 0.0625 0.222656 0.132812 c 0 0.003906 0.035156 0.113282 0.054687 0.625 c 0.027344 0.695313 0.070313 0.886719 0.398438 1.671875 c 0.347656 0.816407 0.445312 1.410157 0.355469 1.964844 c -0.078125 0.496094 -0.214844 0.871094 -0.625 1.683594 c -0.085938 0.179687 -0.167969 0.332031 -0.234375 0.453125 c -0.039063 -0.039063 -0.074219 -0.070313 -0.117188 -0.121094 c -0.164062 -0.171875 -0.347656 -0.390625 -0.457031 -0.535156 c -0.53125 -0.710938 -0.753906 -1.328125 -0.753906 -2.015625 c 0 -0.484375 0.0625 -0.746094 0.34375 -1.433594 c 0.335937 -0.820313 0.410156 -1.132813 0.417969 -1.726563 c 0.003906 -0.269531 0.019531 -0.425781 0.039062 -0.496093 c 0.023438 -0.074219 0.039062 -0.089844 0.132812 -0.171875 c 0.046876 -0.039063 0.132813 -0.046875 0.222657 -0.03125 z m 3.796875 0.710937 c -0.28125 0 -0.527344 0.242188 -0.527344 0.523438 c 0 0.082031 0.023438 0.195312 0.078125 0.28125 c 0.054687 0.085937 0.121094 0.160156 0.222656 0.265625 c 0.339844 0.34375 0.539063 0.691406 0.714844 1.261718 c 0.035156 0.117188 0.066406 0.460938 0.066406 0.792969 c -0.003906 0.332031 -0.039062 0.679688 -0.078125 0.808594 c -0.160156 0.527344 -0.347656 0.851563 -0.691406 1.214844 c -0.066406 0.070312 -0.128906 0.140625 -0.179688 0.207031 c -0.027343 0.03125 -0.046874 0.0625 -0.066406 0.09375 c -0.019531 0.027344 -0.039062 0.050781 -0.054687 0.109375 c -0.039063 0.121094 -0.015625 0.226563 0.023437 0.320313 c 0.039063 0.09375 0.097656 0.179687 0.1875 0.25 c 0.078125 0.058593 0.1875 0.09375 0.289063 0.089843 c 0.101562 -0.007812 0.191406 -0.039062 0.277343 -0.089843 c 0.164063 -0.097657 0.320313 -0.257813 0.5 -0.476563 c 0.386719 -0.476563 0.625 -0.96875 0.78125 -1.617187 c 0.066407 -0.269532 0.089844 -0.5 0.089844 -0.921876 c 0 -0.605468 -0.074218 -1.027343 -0.273437 -1.53125 c -0.148438 -0.371093 -0.375 -0.742187 -0.605469 -1.03125 c -0.117188 -0.148437 -0.230469 -0.273437 -0.347656 -0.367187 c -0.117188 -0.097656 -0.230469 -0.183594 -0.40625 -0.183594 z m -7.8125 0.011719 c -0.125 -0.007812 -0.25 0.023438 -0.355469 0.09375 c -0.191406 0.128906 -0.375 0.339844 -0.554687 0.585938 c -0.179688 0.246093 -0.347657 0.527343 -0.453126 0.78125 c -0.242187 0.578124 -0.3125 0.949218 -0.3125 1.640624 c 0 0.527344 0.019532 0.714844 0.097657 1.007813 c 0.203125 0.738281 0.484375 1.257813 0.96875 1.75 c 0.15625 0.160156 0.261719 0.269531 0.425781 0.328125 c 0.082031 0.027344 0.183594 0.03125 0.269531 0.007812 c 0.082031 -0.027343 0.144531 -0.066406 0.199219 -0.113281 c 0.113281 -0.085937 0.191406 -0.257812 0.191406 -0.398437 c 0 -0.082032 -0.023437 -0.191406 -0.074218 -0.273438 c -0.050782 -0.085937 -0.113282 -0.152344 -0.207032 -0.246094 c -0.628906 -0.648437 -0.898437 -1.441406 -0.796875 -2.410156 c 0.070313 -0.679687 0.316407 -1.222656 0.785157 -1.722656 c 0.136718 -0.148438 0.234374 -0.261719 0.28125 -0.425781 c 0.042968 -0.160157 -0.035157 -0.347657 -0.136719 -0.453125 c -0.085938 -0.09375 -0.207031 -0.144532 -0.328125 -0.152344 z m 1.066406 0.992188 c -0.125 0 -0.183594 0.042968 -0.25 0.085937 c -0.0625 0.042969 -0.125 0.09375 -0.191406 0.152344 c -0.128906 0.117187 -0.261719 0.269531 -0.367188 0.425781 c -0.261718 0.394531 -0.375 0.773438 -0.394531 1.300781 c -0.015625 0.28125 -0.011719 0.535157 0.027344 0.71875 c 0.058593 0.28125 0.207031 0.589844 0.378906 0.855469 c 0.171875 0.269531 0.339844 0.496094 0.589844 0.601562 c 0.097656 0.042969 0.214843 0.066407 0.328125 0.042969 c 0.113281 -0.019531 0.214844 -0.089843 0.285156 -0.171875 c 0.097656 -0.109375 0.152344 -0.292968 0.109375 -0.445312 c -0.039063 -0.15625 -0.132813 -0.273438 -0.261719 -0.410156 c -0.226562 -0.246094 -0.292968 -0.363282 -0.367187 -0.652344 c -0.140625 -0.53125 0.011719 -1.09375 0.390625 -1.484375 c 0.082031 -0.082031 0.140625 -0.148438 0.183594 -0.226563 c 0.046874 -0.082031 0.070312 -0.183594 0.070312 -0.265625 c 0 -0.296875 -0.234375 -0.527343 -0.53125 -0.527343 z m 5.640625 0 c -0.09375 0 -0.191406 0.011718 -0.285156 0.066406 c -0.09375 0.054687 -0.15625 0.136718 -0.199219 0.222656 c -0.054688 0.105469 -0.082031 0.265625 -0.035156 0.398438 c 0.050781 0.136718 0.136718 0.230468 0.257812 0.359374 c 0.078125 0.082032 0.21875 0.289063 0.261719 0.382813 c 0.28125 0.621094 0.179687 1.242187 -0.296875 1.773437 c -0.089844 0.105469 -0.152344 0.175782 -0.199219 0.261719 c -0.046875 0.085938 -0.0625 0.21875 -0.042969 0.300781 c 0.042969 0.167969 0.171876 0.332032 0.332032 0.398438 c 0.160156 0.0625 0.34375 0.023438 0.480468 -0.066406 c 0.136719 -0.085938 0.261719 -0.214844 0.394532 -0.390625 c 0.386718 -0.492188 0.535156 -0.941407 0.535156 -1.597657 c 0 -0.546874 -0.09375 -0.910156 -0.355469 -1.355468 c -0.101562 -0.171875 -0.238281 -0.339844 -0.375 -0.476563 c -0.070312 -0.070312 -0.136719 -0.128906 -0.207031 -0.175781 c -0.070312 -0.050781 -0.125 -0.101562 -0.265625 -0.101562 z m -2.117187 6.996093 c 0.074218 0.121094 0.15625 0.261719 0.179687 0.316407 c 0.042969 0.101562 0.0625 0.226562 0.058594 0.324218 c -0.003907 0.097656 -0.039063 0.167969 -0.046875 0.175782 c -0.03125 0.035156 -0.023438 0.019531 -0.003906 0.019531 c 0.019531 0 0.011718 0.007812 -0.03125 -0.03125 c -0.125 -0.117188 -0.175782 -0.242188 -0.171876 -0.578125 c 0 -0.058594 0.011719 -0.148438 0.015626 -0.226563 z m 0 0" fill="#241f31"/>
</svg>
